# xmcd
#
# Track frame offsets: 
#        150
#        16450
#        37703
#        60915
#        82991
#        106129
#        122461
#        141221
#        179288
#        192308
#        205465
#        236057
#        256168
#        286274
#        302878
#
# Disc length: 4599 seconds
#
# Revision: 0
# Processed by: cddbd v1.5.1PL2 Copyright (c) Steve Scherf et al.
# Submitted via: ExactAudioCopy v0.95b3
#
DISCID=c311f50f
DTITLE=The Swamp - Love Songs and other minor Personal Problems
DYEAR=2006
DGENRE=Blues
TTITLE0=Back On The Track
TTITLE1=Smells Like Hell
TTITLE2=Polar Bear Express
TTITLE3=Turn Arround
TTITLE4=I`ve Killed For Less
TTITLE5=The Bar
TTITLE6=I Wish
TTITLE7=Swamp Fever
TTITLE8=A Friend
TTITLE9=Beasonable
TTITLE10=Let The Flowers Grow
TTITLE11=All You`ve Got
TTITLE12=You Took It Away
TTITLE13=I`m Just A Man
TTITLE14=Why
EXTD=
EXTT0=
EXTT1=
EXTT2=
EXTT3=
EXTT4=
EXTT5=
EXTT6=
EXTT7=
EXTT8=
EXTT9=
EXTT10=
EXTT11=
EXTT12=
EXTT13=
EXTT14=
PLAYORDER=
